<svg width="256" height="256" role="img" version="1.1" viewBox="0 0 256 256" xmlns="http://www.w3.org/2000/svg">
 <title>SemVer icon</title>
 <path d="m9.6 0h236.8c5.3022 0 9.6 4.298 9.6 9.6v236.8c0 5.3022-4.2978 9.6-9.6 9.6h-236.8c-5.302 0-9.6-4.2978-9.6-9.6v-236.8c0-5.302 4.298-9.6 9.6-9.6z" fill="#3178c6" style="stroke-width:.98462"/>
 <path d="m8.8459 61.442a72.978 72.978 0 0 0 15.799 65.559 72.863 72.863 0 0 0 62.76 24.566c46.967-4.2505 79.121-59.247 57.542-101.58-2.5152-7.195-12.516-2.225-11.506 3.6035 1.7352 4.2324 3.1803 8.5917 4.311 13.03a60.359 60.359 0 0 1-23.737 61.974 60.25 60.25 0 0 1-89.526-23.03 60.365 60.365 0 0 1 9.0451-65.746 60.269 60.269 0 0 1 29.324-18.405 59.664 59.664 0 0 1 42.444 3.8152 2.0134 2.0134 0 0 1 0.93716 2.5938l-23.955 64.211c-0.64694 4.8974-4.1719 4.7523-4.8188 0l-14.39-44.561a9.5046 9.5046 0 0 0-4.6737-5.9736c-7.195-3.3859-18.701 4.0328-14.384 13.03l23.665 63.128c3.1682 8.4224 6.1853 11.089 12.443 11.089 6.2578 0 9.2809-2.6603 12.443-11.089l35.044-86.957a6.2639 6.2639 0 0 0-2.231-7.195c-39.488-34.203-104.67-12.751-116.53 37.928z" style="fill:#03f87d;stroke-width:6.0462"/>
 <path d="m88.28 143.25v18.825h29.164v83.819h23.217v-83.819h29.305v-18.825zm131.05 0c-5.4724 0-10.656 0.58496-15.552 1.7546-4.896 1.1688-9.2034 2.9943-12.923 5.4758-3.7201 2.4815-6.6586 5.6432-8.8188 9.4842-2.1602 3.8419-3.2396 8.4353-3.2396 13.78 0 6.8249 1.9797 12.647 5.9399 17.466 3.9593 4.82 9.9708 8.9 18.035 12.241 3.1675 1.2889 6.1198 2.5535 8.8556 3.7947 2.7358 1.2403 5.1006 2.5291 7.0922 3.8648 1.9925 1.3366 3.5638 2.7907 4.7158 4.3656 1.152 1.5749 1.7284 3.3642 1.7284 5.369 0 1.4796-0.3601 2.8528-1.0805 4.117-0.71948 1.265-1.8127 2.3617-3.2764 3.2922-1.4646 0.93047-3.2883 1.6593-5.4723 2.1837-2.184 0.52526-4.7383 0.78626-7.6665 0.78626-4.9913 0-9.9362-0.86921-14.832-2.611-4.896-1.7418-9.4317-4.3564-13.608-7.8399v22.907c3.7439 1.9086 8.172 3.3395 13.284 4.2938 5.1114 0.9543 10.499 1.4324 16.163 1.4324 5.5201 0 10.765-0.52465 15.732-1.5743 4.9684-1.0496 9.3232-2.7804 13.067-5.1904 3.7439-2.41 6.7083-5.5596 8.8923-9.4492 2.184-3.8896 3.2764-8.6958 3.2764-14.422 0-4.1518-0.62459-7.7907-1.872-10.917-1.2483-3.126-3.0488-5.9051-5.4005-8.339-2.3518-2.4338-5.1723-4.6168-8.4598-6.5493-3.2884-1.9324-6.9954-3.7597-11.123-5.4776-3.0236-1.2412-5.7355-2.4456-8.1358-3.6144-2.3994-1.1688-4.4403-2.3628-6.1203-3.5794-1.68-1.2174-2.9756-2.5044-3.8876-3.8648-0.91193-1.3595-1.3694-2.8999-1.3694-4.6178 0-1.5749 0.4101-2.9946 1.2258-4.2588 0.81569-1.265 1.9666-2.3505 3.455-3.2571 1.4875-0.90663 3.3121-1.6105 5.4723-2.1119 2.1602-0.50054 4.5603-0.75124 7.2007-0.75124 1.9192 0 3.9463 0.14301 6.0817 0.42903 2.1364 0.28691 4.2849 0.72797 6.4442 1.3239 2.1602 0.59677 4.2605 1.3497 6.3006 2.2572 2.0401 0.90663 3.9233 1.9559 5.651 3.1486v-21.403c-3.5038-1.3366-7.3305-2.3282-11.482-2.9717-4.1527-0.64443-8.9175-0.96663-14.293-0.96663z" style="fill:#f9f9f9;stroke-width:2.6898"/>
</svg>
